<svg xmlns="http://www.w3.org/2000/svg" viewBox="0 0 24 24">
  <path d="M19 3C17.346 3 16 4.346 16 6C16 6.4617584 16.113553 6.8939944 16.300781 7.2851562L12.585938 11L7.8164062 11C7.4021391 9.8387486 6.3016094 9 5 9C3.346 9 2 10.346 2 12C2 13.654 3.346 15 5 15C6.3016094 15 7.4021391 14.161251 7.8164062 13L12.585938 13L16.300781 16.714844C16.113553 17.106006 16 17.538242 16 18C16 19.654 17.346 21 19 21C20.654 21 22 19.654 22 18C22 16.346 20.654 15 19 15C18.538242 15 18.106006 15.113553 17.714844 15.300781L14.414062 12L17.714844 8.6992188C18.106006 8.8864466 18.538242 9 19 9C20.654 9 22 7.654 22 6C22 4.346 20.654 3 19 3 z" fill="#FFFFFF" />
</svg>