<svg xmlns="http://www.w3.org/2000/svg" viewBox="0 0 24 24">
  <path d="M14.191406 2.015625C13.930156 2.015625 13.669734 2.1107813 13.490234 2.3007812C13.399234 2.3907813 13.319531 2.4991406 13.269531 2.6191406C13.219531 2.7391406 13.189453 2.87 13.189453 3C13.189453 3.27 13.300234 3.5209375 13.490234 3.7109375C13.679234 3.8999375 13.928219 4 14.199219 4C14.459219 4 14.709437 3.8999375 14.898438 3.7109375C15.088437 3.5209375 15.189453 3.27 15.189453 3C15.189453 2.74 15.088437 2.4807813 14.898438 2.3007812C14.713937 2.1107813 14.452656 2.015625 14.191406 2.015625 z M 19.75 2.015625C19.4875 2.015625 19.224063 2.1107813 19.039062 2.3007812C18.858063 2.4797812 18.75 2.74 18.75 3C18.75 3.27 18.849063 3.5209375 19.039062 3.7109375C19.228063 3.8999375 19.49 4 19.75 4C20.02 4 20.270937 3.8999375 20.460938 3.7109375C20.649938 3.5209375 20.75 3.27 20.75 3C20.75 2.74 20.640937 2.4807813 20.460938 2.3007812C20.275938 2.1107813 20.0125 2.015625 19.75 2.015625 z M 12 4.1972656C11.74425 4.1972656 11.488469 4.2947344 11.292969 4.4902344L4.8789062 10.904297C2.3449062 13.438297 2.3449063 17.561703 4.8789062 20.095703C6.1069063 21.323703 7.7405625 22 9.4765625 22C11.212562 22 12.844266 21.322703 14.072266 20.095703L18.71875 15.451172C19.10975 15.060172 19.10975 14.428109 18.71875 14.037109C18.32775 13.646109 17.695687 13.646109 17.304688 14.037109L12.658203 18.681641C11.808203 19.531641 10.679563 20 9.4765625 20C8.2735625 20 7.1439688 19.531641 6.2929688 18.681641C4.5389687 16.927641 4.5389688 14.073359 6.2929688 12.318359L12.707031 5.9042969C13.098031 5.5132969 13.098031 4.8812344 12.707031 4.4902344C12.511531 4.2947344 12.25575 4.1972656 12 4.1972656 z M 17.011719 4.7402344C16.755969 4.7402344 16.500187 4.8377031 16.304688 5.0332031L12.294922 9.0449219C11.903922 9.4359219 11.903922 10.067984 12.294922 10.458984C12.489922 10.653984 12.745953 10.751953 13.001953 10.751953C13.257953 10.751953 13.513984 10.653984 13.708984 10.458984L17.71875 6.4472656C18.10975 6.0562656 18.10975 5.4242031 17.71875 5.0332031C17.52325 4.8377031 17.267469 4.7402344 17.011719 4.7402344 z M 20.75 6.015625C20.4875 6.015625 20.224063 6.1107813 20.039062 6.3007812C19.858063 6.4797813 19.75 6.74 19.75 7C19.75 7.27 19.849063 7.5209375 20.039062 7.7109375C20.228063 7.8999375 20.479 8 20.75 8C21.02 8 21.270937 7.8999375 21.460938 7.7109375C21.649938 7.5209375 21.75 7.27 21.75 7C21.75 6.74 21.649938 6.4807812 21.460938 6.3007812C21.275938 6.1107813 21.0125 6.015625 20.75 6.015625 z M 18.5 8.2539062C18.24425 8.2539062 17.988469 8.351375 17.792969 8.546875L14.046875 12.292969C13.655875 12.683969 13.655875 13.316031 14.046875 13.707031C14.241875 13.902031 14.497906 14 14.753906 14C15.009906 14 15.265937 13.902031 15.460938 13.707031L19.207031 9.9609375C19.598031 9.5699375 19.598031 8.937875 19.207031 8.546875C19.011531 8.351375 18.75575 8.2539062 18.5 8.2539062 z M 20.5 11.265625C20.2375 11.265625 19.974063 11.360781 19.789062 11.550781C19.699063 11.640781 19.630078 11.749141 19.580078 11.869141C19.530078 11.989141 19.5 12.12 19.5 12.25C19.5 12.52 19.608062 12.770938 19.789062 12.960938C19.978063 13.149937 20.229 13.25 20.5 13.25C20.63 13.25 20.760859 13.229688 20.880859 13.179688C21.000859 13.129688 21.109938 13.050937 21.210938 12.960938C21.399938 12.770937 21.5 12.52 21.5 12.25C21.5 11.99 21.399938 11.730781 21.210938 11.550781C21.025938 11.360781 20.7625 11.265625 20.5 11.265625 z M 9.5 13 A 2.5 2.5 0 0 0 7 15.5 A 2.5 2.5 0 0 0 9.5 18 A 2.5 2.5 0 0 0 12 15.5 A 2.5 2.5 0 0 0 9.5 13 z" fill="#FFFFFF" />
</svg>