<svg xmlns="http://www.w3.org/2000/svg" viewBox="0 0 24 24">
  <path d="M11.984375 -0.013671875 A 1.0001 1.0001 0 0 0 11 1L11 2 A 1.0001 1.0001 0 1 0 13 2L13 1 A 1.0001 1.0001 0 0 0 11.984375 -0.013671875 z M 17.076172 3C16.947172 3 16.839219 3.0966094 16.824219 3.2246094L16.707031 4.2363281C16.223719 4.4043168 15.787108 4.6602018 15.408203 4.9882812L14.470703 4.5839844C14.352703 4.5329844 14.214391 4.5774531 14.150391 4.6894531L13.214844 6.3105469C13.149844 6.4215469 13.180203 6.563625 13.283203 6.640625L14.089844 7.2402344C14.042423 7.4865064 14.013672 7.7398959 14.013672 8C14.013672 8.2601041 14.042423 8.5134936 14.089844 8.7597656L13.283203 9.359375C13.180203 9.435375 13.150844 9.5774531 13.214844 9.6894531L14.150391 11.310547C14.214391 11.422547 14.352703 11.468969 14.470703 11.417969L15.408203 11.011719C15.787108 11.339798 16.223719 11.595683 16.707031 11.763672L16.824219 12.775391C16.839219 12.903391 16.947172 13 17.076172 13L18.949219 13C19.078219 13 19.186172 12.903391 19.201172 12.775391L19.318359 11.763672C19.802129 11.595693 20.23993 11.340063 20.619141 11.011719L21.554688 11.414062C21.672688 11.465063 21.811 11.420594 21.875 11.308594L22.810547 9.6875C22.875547 9.5765 22.845188 9.4344219 22.742188 9.3574219L21.935547 8.7597656C21.98297 8.5134896 22.013672 8.2601087 22.013672 8C22.013672 7.7398913 21.98297 7.4865104 21.935547 7.2402344L22.742188 6.640625C22.845187 6.564625 22.874547 6.4225469 22.810547 6.3105469L21.875 4.6894531C21.811 4.5774531 21.672687 4.5310312 21.554688 4.5820312L20.619141 4.9882812C20.23993 4.6599371 19.802129 4.4043068 19.318359 4.2363281L19.201172 3.2246094C19.186172 3.0966094 19.078219 3 18.949219 3L17.076172 3 z M 4.2109375 3.2109375 A 1.0001 1.0001 0 0 0 3.515625 4.9296875L4.2226562 5.6367188 A 1.0001 1.0001 0 1 0 5.6367188 4.2226562L4.9296875 3.515625 A 1.0001 1.0001 0 0 0 4.2109375 3.2109375 z M 11.675781 5.015625C7.9667812 5.187625 5 8.25 5 12C5 14.785 6.639 17.188453 9 18.314453L9 21C9 22.103 9.897 23 11 23L13 23C14.103 23 15 22.103 15 21L15 18.314453C16.455 17.620453 17.632219 16.439375 18.324219 14.984375C18.215219 14.989375 18.11 15 18 15C14.134 15 11 11.866 11 8C11 6.931 11.247781 5.922625 11.675781 5.015625 z M 18.013672 6.25C18.979672 6.25 19.763672 7.034 19.763672 8C19.763672 8.967 18.979672 9.75 18.013672 9.75C17.047672 9.75 16.263672 8.967 16.263672 8C16.263672 7.034 17.047672 6.25 18.013672 6.25 z M 1 11 A 1.0001 1.0001 0 1 0 1 13L2 13 A 1.0001 1.0001 0 1 0 2 11L1 11 z M 4.9101562 18.060547 A 1.0001 1.0001 0 0 0 4.2226562 18.363281L3.515625 19.070312 A 1.0001 1.0001 0 1 0 4.9296875 20.484375L5.6367188 19.777344 A 1.0001 1.0001 0 0 0 4.9101562 18.060547 z M 19.060547 18.060547 A 1.0001 1.0001 0 0 0 18.363281 19.777344L19.070312 20.484375 A 1.0001 1.0001 0 1 0 20.484375 19.070312L19.777344 18.363281 A 1.0001 1.0001 0 0 0 19.060547 18.060547 z" fill="#FFFFFF" />
</svg>