<svg xmlns="http://www.w3.org/2000/svg" viewBox="0 0 24 24">
  <path d="M9 3C8.448 3 8 3.448 8 4C8 4.552 8.448 5 9 5L9 10L3.4277344 17.773438L3.4316406 17.773438C3.1656406 18.112437 3 18.535 3 19C3 20.105 3.895 21 5 21L19 21C20.105 21 21 20.105 21 19C21 18.535 20.834359 18.112437 20.568359 17.773438L20.572266 17.773438L15 10L15 5C15.552 5 16 4.552 16 4C16 3.448 15.552 3 15 3L9 3 z M 11 5L13 5L13 10L11 10L11 5 z M 13 13C13.552 13 14 13.448 14 14C14 14.552 13.552 15 13 15C12.448 15 12 14.552 12 14C12 13.448 12.448 13 13 13 z M 9.5 16C10.328 16 11 16.672 11 17.5C11 18.328 10.328 19 9.5 19C8.672 19 8 18.328 8 17.5C8 16.672 8.672 16 9.5 16 z" fill="#FFFFFF" />
</svg>